<svg version="1.0" xmlns="http://www.w3.org/2000/svg" width="136" height="136" viewBox="0 0 102 102"><path d="M3.4 4.4L0 7.8v86.4l3.4 3.4 3.4 3.4h88.4l3.4-3.4 3.4-3.4V7.8l-3.4-3.4L95.2 1H6.8L3.4 4.4zm29.8 29.9C30.4 37.2 28 40 28 40.6c0 .5 2.3 3.2 5 5.9l5 5 5.7-5.8 5.8-5.7-5.5-5.5-5.4-5.5 5.4-5.5 5.5-5.5 5.5 5.5 5.5 5.5-5.5 5.5-5.5 5.5 5.8 5.7 5.7 5.8 5-5c2.7-2.7 5-5.4 5-5.9 0-.6-2.4-3.4-5.2-6.3L60.5 29l5.5-5.5 5.5-5.5 5.8 5.8 5.7 5.8-5.5 5.4-5.5 5.4 5.5 5.6 5.5 5.6-5.5 5.4-5.5 5.4 5.5 5.6 5.5 5.6-5.8 5.7-5.8 5.7-5.4-5.5-5.4-5.5 5.4-5.5 5.4-5.5-5.4-5.5-5.5-5.5-5.5 5.5-5.5 5.5 5.5 5.5 5.5 5.5-5.5 5.5-5.5 5.5-5.5-5.5-5.4-5.5 5.4-5.5 5.5-5.5-5.5-5.5-5.5-5.5-5.5 5.5-5.4 5.5 5.4 5.5 5.4 5.5-5.4 5.5-5.4 5.5-5.8-5.7-5.8-5.7 5.5-5.6 5.5-5.6-5.5-5.4-5.5-5.4 5.5-5.6 5.5-5.6-5.5-5.4-5.5-5.4 5.7-5.8 5.8-5.8 5.5 5.5 5.5 5.5-5.3 5.3z"/></svg>