<?xml version="1.0" standalone="no"?>
<!DOCTYPE svg PUBLIC "-//W3C//DTD SVG 20010904//EN"
 "http://www.w3.org/TR/2001/REC-SVG-20010904/DTD/svg10.dtd">
<svg version="1.0" xmlns="http://www.w3.org/2000/svg"
 width="102.000000pt" height="102.000000pt" viewBox="0 0 102.000000 102.000000"
 preserveAspectRatio="xMidYMid meet">
<metadata>
Created by potrace 1.11, written by Peter Selinger 2001-2013
</metadata>
<g transform="translate(0.000000,102.000000) scale(0.100000,-0.100000)"
fill="#000000" stroke="none">
<path d="M34 976 l-34 -34 0 -432 0 -432 34 -34 34 -34 442 0 442 0 34 34 34
34 0 432 0 432 -34 34 -34 34 -442 0 -442 0 -34 -34z m298 -299 c-28 -29 -52
-57 -52 -63 0 -5 23 -32 50 -59 l50 -50 57 58 58 57 -55 55 -54 55 54 55 55
55 55 -55 55 -55 -55 -55 -55 -55 58 -57 57 -58 50 50 c27 27 50 54 50 59 0 6
-24 34 -52 63 l-53 53 55 55 55 55 58 -58 57 -58 -55 -54 -55 -54 55 -56 55
-56 -55 -54 -55 -54 55 -56 55 -56 -58 -57 -58 -57 -54 55 -54 55 54 55 54 55
-54 55 -55 55 -55 -55 -55 -55 55 -55 55 -55 -55 -55 -55 -55 -55 55 -54 55
54 55 55 55 -55 55 -55 55 -55 -55 -54 -55 54 -55 54 -55 -54 -55 -54 -55 -58
57 -58 57 55 56 55 56 -55 54 -55 54 55 56 55 56 -55 54 -55 54 57 58 58 58
55 -55 55 -55 -53 -53z"/>
</g>
</svg>
